<svg xmlns="http://www.w3.org/2000/svg" width="176.225" height="33.985"><path d="M0 12.495a12.8 12.8 0 011.627-6.457 11.621 11.621 0 014.448-4.446A12.613 12.613 0 0112.393 0a12.427 12.427 0 017.175 2.1 10.98 10.98 0 014.305 5.81h-5.638a5.84 5.84 0 00-2.36-2.625 6.933 6.933 0 00-3.518-.875 7.236 7.236 0 00-3.8 1 6.807 6.807 0 00-2.59 2.817 9.288 9.288 0 00-.927 4.27 9.316 9.316 0 00.928 4.248 6.784 6.784 0 002.59 2.835 7.236 7.236 0 003.8 1 6.826 6.826 0 003.517-.892 5.946 5.946 0 002.36-2.643h5.64a10.921 10.921 0 01-4.288 5.828 12.48 12.48 0 01-7.197 2.082 12.613 12.613 0 01-6.315-1.593 11.656 11.656 0 01-4.448-4.427A12.7 12.7 0 010 12.495zM36.68 25.06a10.213 10.213 0 01-5.04-1.243 8.947 8.947 0 01-3.517-3.518 10.54 10.54 0 01-1.278-5.254 10.316 10.316 0 011.313-5.25 9.121 9.121 0 013.587-3.518 10.412 10.412 0 015.075-1.232 10.412 10.412 0 015.075 1.242 9.121 9.121 0 013.587 3.518 10.316 10.316 0 011.313 5.24 10.106 10.106 0 01-1.348 5.25 9.331 9.331 0 01-3.64 3.518 10.585 10.585 0 01-5.127 1.247zm0-4.27a5.1 5.1 0 002.5-.647 4.706 4.706 0 001.875-1.943 6.546 6.546 0 00.7-3.15 5.837 5.837 0 00-1.453-4.253A4.775 4.775 0 0036.75 9.31a4.662 4.662 0 00-3.518 1.487 5.925 5.925 0 00-1.417 4.248 6.019 6.019 0 001.382 4.253 4.552 4.552 0 003.483 1.492zm37.8-15.715a7.784 7.784 0 015.757 2.188 8.256 8.256 0 012.188 6.108v11.374h-4.9v-10.71a4.844 4.844 0 00-1.15-3.483 4.153 4.153 0 00-3.15-1.207 4.211 4.211 0 00-3.168 1.207 4.8 4.8 0 00-1.182 3.483v10.71h-4.9v-10.71a4.844 4.844 0 00-1.155-3.483 4.153 4.153 0 00-3.145-1.207 4.257 4.257 0 00-3.2 1.207 4.8 4.8 0 00-1.173 3.483v10.71h-4.9V5.355h4.9V7.7a6.521 6.521 0 012.433-1.925 7.589 7.589 0 013.272-.7 8.418 8.418 0 014.06.963 6.745 6.745 0 012.765 2.747 7.02 7.02 0 012.747-2.7 7.822 7.822 0 013.901-1.01zm17.5 3.08a7.441 7.441 0 012.607-2.222 7.9 7.9 0 013.8-.892 8.479 8.479 0 014.5 1.225 8.619 8.619 0 013.18 3.479 11.2 11.2 0 011.173 5.233 11.409 11.409 0 01-1.173 5.267 8.818 8.818 0 01-3.185 3.552 8.3 8.3 0 01-4.5 1.26 7.824 7.824 0 01-3.759-.872 8.072 8.072 0 01-2.643-2.205v12h-4.9V5.355h4.9zm10.255 6.825a6.085 6.085 0 00-.717-3.028 4.968 4.968 0 00-1.89-1.943 5.058 5.058 0 00-2.537-.665 4.894 4.894 0 00-2.5.682 5.066 5.066 0 00-1.89 1.977 6.185 6.185 0 00-.721 3.042 6.185 6.185 0 00.717 3.045 5.066 5.066 0 001.89 1.978 4.894 4.894 0 002.5.682 4.863 4.863 0 002.537-.7 5.2 5.2 0 001.89-2 6.26 6.26 0 00.721-3.07zm7.315 0a11.222 11.222 0 011.173-5.215 8.594 8.594 0 013.185-3.5 8.48 8.48 0 014.5-1.225 7.9 7.9 0 013.8.875 7.706 7.706 0 012.607 2.205V5.355h4.935v19.39h-4.935V21.91a7.288 7.288 0 01-2.607 2.258 7.978 7.978 0 01-3.833.893 8.24 8.24 0 01-4.463-1.26 8.818 8.818 0 01-3.19-3.556 11.409 11.409 0 01-1.172-5.265zm15.26.07a6.285 6.285 0 00-.7-3.063 4.935 4.935 0 00-1.89-1.96 5.051 5.051 0 00-2.555-.682 4.963 4.963 0 00-2.52.665 5.008 5.008 0 00-1.872 1.943 6.085 6.085 0 00-.717 3.028 6.285 6.285 0 00.719 3.064 5.166 5.166 0 001.89 2.013 4.8 4.8 0 002.5.7 5.051 5.051 0 002.555-.682 4.935 4.935 0 001.89-1.96 6.285 6.285 0 00.7-3.071zm20.475-9.975a7.474 7.474 0 015.6 2.188 8.375 8.375 0 012.135 6.108v11.374h-4.9v-10.71a5.028 5.028 0 00-1.155-3.552 4.091 4.091 0 00-3.15-1.243 4.192 4.192 0 00-3.2 1.243 4.98 4.98 0 00-1.173 3.552v10.71h-4.9V5.355h4.9V7.77a6.769 6.769 0 012.5-1.978 7.741 7.741 0 013.343-.717zm30.94.28l-12 28.56h-5.22l4.2-9.66-7.77-18.9h5.495l5.005 13.545 5.075-13.545z"/></svg>